HIERARCHY
ROOT Hips
{
	OFFSET -0.001795 -0.223333 0.028219
	CHANNELS 6 Xposition Yposition Zposition Zrotation Yrotation Xrotation 
	JOINT LeftUpLeg
	{
		OFFSET 0.069520 -0.091406 -0.006815
		CHANNELS 3 Zrotation Yrotation Xrotation
		JOINT LeftLeg
		{
			OFFSET 0.034277 -0.375199 -0.004496
			CHANNELS 3 Zrotation Yrotation Xrotation
			JOINT LeftFoot
			{
				OFFSET -0.013596 -0.397961 -0.043693
				CHANNELS 3 Zrotation Yrotation Xrotation
				JOINT LeftToe
				{
					OFFSET 0.026358 -0.055791 0.119288
					CHANNELS 3 Zrotation Yrotation Xrotation
					End Site
					{
						OFFSET 0.000000 0.000000 0.000000
					}
				}
			}
		}
	}
	JOINT RightUpLeg
	{
		OFFSET -0.067670 -0.090522 -0.004320
		CHANNELS 3 Zrotation Yrotation Xrotation
		JOINT RightLeg
		{
			OFFSET -0.038290 -0.382569 -0.008850
			CHANNELS 3 Zrotation Yrotation Xrotation
			JOINT RightFoot
			{
				OFFSET 0.015774 -0.398415 -0.042312
				CHANNELS 3 Zrotation Yrotation Xrotation
				JOINT RightToe
				{
					OFFSET -0.025372 -0.048144 0.123348
					CHANNELS 3 Zrotation Yrotation Xrotation
					End Site
					{
						OFFSET 0.000000 0.000000 0.000000
					}
				}
			}
		}
	}
	JOINT Spine
	{
		OFFSET -0.002533 0.108963 -0.026696
		CHANNELS 3 Zrotation Yrotation Xrotation
		JOINT Spine1
		{
			OFFSET 0.005487 0.135180 0.001092
			CHANNELS 3 Zrotation Yrotation Xrotation
			JOINT Spine2
			{
				OFFSET 0.001457 0.052922 0.025425
				CHANNELS 3 Zrotation Yrotation Xrotation
				JOINT Neck
				{
					OFFSET -0.002778 0.213870 -0.042857
					CHANNELS 3 Zrotation Yrotation Xrotation
					JOINT Head
					{
						OFFSET 0.005152 0.064970 0.051349
						CHANNELS 3 Zrotation Yrotation Xrotation
						End Site
						{
							OFFSET 0.000000 0.000000 0.000000
						}
					}
				}
				JOINT LeftShoulder
				{
					OFFSET 0.078845 0.121749 -0.034090
					CHANNELS 3 Zrotation Yrotation Xrotation
					JOINT LeftArm
					{
						OFFSET 0.090977 0.030469 -0.008868
						CHANNELS 3 Zrotation Yrotation Xrotation
						JOINT LeftForeArm
						{
							OFFSET 0.259612 -0.012772 -0.027456
							CHANNELS 3 Zrotation Yrotation Xrotation
							JOINT LeftHand
							{
								OFFSET 0.249234 0.008986 -0.001171
								CHANNELS 3 Zrotation Yrotation Xrotation
								End Site
								{
									OFFSET 0.000000 0.000000 0.000000
								}
							}
						}
					}
				}
				JOINT RightShoulder
				{
					OFFSET -0.081759 0.118833 -0.038615
					CHANNELS 3 Zrotation Yrotation Xrotation
					JOINT RightArm
					{
						OFFSET -0.096012 0.032551 -0.009143
						CHANNELS 3 Zrotation Yrotation Xrotation
						JOINT RightForeArm
						{
							OFFSET -0.253742 -0.013329 -0.021401
							CHANNELS 3 Zrotation Yrotation Xrotation
							JOINT RightHand
							{
								OFFSET -0.255298 0.007772 -0.005559
								CHANNELS 3 Zrotation Yrotation Xrotation
								End Site
								{
									OFFSET 0.000000 0.000000 0.000000
								}
							}
						}
					}
				}
			}
		}
	}
}
MOTION
Frames: 7
Frame Time: 0.050000
0.000000 0.955483 0.000000 -0.034113 -10.080344 -3.177999 -1.648413 -0.741814 -7.071411 -1.406898 0.217685 15.591701 3.747058 9.497078 11.078741 0.000000 0.000000 0.000000 -2.061721 1.739841 -17.506105 0.082076 3.179713 37.024632 -1.970915 -8.610200 8.269542 0.000000 0.000000 0.000000 7.735138 -2.091675 24.656070 -6.515418 1.913435 -26.637456 -1.116828 4.390067 32.021015 10.558897 -6.492483 -20.095090 0.000000 0.000000 0.000000 -21.755438 4.647686 -3.015559 -50.106496 12.836686 -14.067732 -23.771805 -44.313001 13.306587 0.000000 0.000000 0.000000 25.658316 -11.602711 -9.271927 43.536752 -19.996371 -13.219207 46.685183 35.251526 16.852328 0.000000 0.000000 0.000000 
0.003391 0.953449 -0.020767 -0.524055 -9.447879 -2.971177 -0.624837 -0.732667 -7.807638 -2.489291 0.462045 14.785387 3.710632 9.271025 9.277988 0.000000 0.000000 0.000000 -1.395774 1.694761 -16.600124 1.252499 3.377068 43.946080 -1.686104 -9.604555 13.505093 0.000000 0.000000 0.000000 8.250507 -2.171247 23.629325 -5.241662 1.648380 -24.664092 -1.097845 4.890809 30.577215 8.931232 -5.030295 -20.326028 0.000000 0.000000 0.000000 -20.661858 5.723692 -3.900061 -50.234345 16.106646 -15.081699 -27.343970 -43.023758 14.127095 0.000000 0.000000 0.000000 25.405087 -10.470666 -8.218094 44.396637 -21.619514 -13.971884 50.434268 35.081627 18.318224 0.000000 0.000000 0.000000 
0.005201 0.950684 -0.043052 0.970445 -8.094067 -2.977868 -2.357921 -0.937825 -8.486547 -2.061591 0.263828 12.317653 3.200566 8.706394 10.709737 0.000000 0.000000 0.000000 -2.798570 1.067747 -12.051819 1.649606 2.790488 42.882065 -0.853287 -8.056688 13.790574 0.000000 0.000000 0.000000 8.982269 -2.300111 22.745384 -8.087745 2.479053 -22.880215 0.401264 3.586896 29.083589 6.867084 -3.736761 -19.747999 0.000000 0.000000 0.000000 -20.091515 5.071352 -3.418560 -50.347986 19.631764 -16.330327 -30.945415 -45.114921 16.462111 0.000000 0.000000 0.000000 24.506686 -10.708498 -8.337988 44.779781 -22.294564 -14.229276 53.009571 32.496176 17.649039 0.000000 0.000000 0.000000 
0.005011 0.947765 -0.067962 2.091383 -7.878079 -3.576458 -2.722976 -1.090419 -9.626055 -2.502417 0.354567 11.574908 2.305891 7.653610 13.181915 0.000000 0.000000 0.000000 -3.259250 0.736056 -8.571606 0.657236 2.830243 39.037609 -0.512138 -6.655402 11.446815 0.000000 0.000000 0.000000 8.665119 -2.338831 24.137309 -7.771178 2.344877 -24.630682 0.515653 6.575535 30.761516 7.676392 -3.780660 -19.993940 0.000000 0.000000 0.000000 -20.445573 4.224125 -3.705711 -51.507424 21.901853 -17.806819 -30.101203 -46.728264 16.315633 0.000000 0.000000 0.000000 26.385292 -10.274090 -7.345109 45.247389 -20.274683 -14.085738 54.715899 33.279346 19.589256 0.000000 0.000000 0.000000 
0.002599 0.943994 -0.097436 2.757068 -6.063311 -3.691718 -3.164020 -1.419112 -12.234611 -2.595521 0.328559 11.915755 1.865175 7.703684 15.920553 0.000000 0.000000 0.000000 -2.857153 0.413127 -4.476240 -0.264631 2.117081 30.662528 -2.421880 -8.772626 7.062992 0.000000 0.000000 0.000000 9.239793 -2.677262 25.484978 -8.407767 2.583477 -23.951844 1.107569 7.230084 29.462192 8.968820 -4.166898 -21.228802 0.000000 0.000000 0.000000 -19.913182 3.867208 -3.962856 -50.879080 24.379719 -18.384110 -36.049278 -48.512528 19.472875 0.000000 0.000000 0.000000 26.269754 -9.778202 -6.485107 45.304500 -17.528981 -13.153506 58.204187 33.393924 21.419764 0.000000 0.000000 0.000000 
-0.000425 0.940492 -0.130406 2.394712 -5.957513 -3.937754 -2.004361 -1.484967 -14.240500 -2.809517 0.382821 12.826416 1.007867 6.367334 15.645458 0.000000 0.000000 0.000000 -1.918269 0.370516 -3.890880 0.168178 1.700475 27.903948 -4.147311 -11.116989 2.895841 0.000000 0.000000 0.000000 10.126974 -3.099954 27.710127 -8.750725 2.634016 -24.965335 2.159451 9.583009 30.098859 9.771578 -3.723191 -24.252842 0.000000 0.000000 0.000000 -19.005952 3.046450 -3.984436 -53.054722 25.524870 -19.833750 -40.732707 -50.600021 22.509079 0.000000 0.000000 0.000000 26.535962 -8.912428 -5.073128 45.513140 -12.885524 -11.939623 60.279538 34.741891 24.012294 0.000000 0.000000 0.000000 
-0.002648 0.940511 -0.163820 2.062593 -5.453726 -4.241801 -0.359425 -1.373252 -15.401887 -3.374233 0.505615 13.223580 -0.713376 3.609908 14.877107 0.000000 0.000000 0.000000 -2.269282 0.476797 -5.258593 1.108005 1.205441 26.285978 -3.314371 -9.683463 4.155074 0.000000 0.000000 0.000000 10.160081 -3.357409 29.696351 -8.638471 2.561696 -26.038206 3.000656 10.108387 30.804033 8.807805 -3.044876 -23.914077 0.000000 0.000000 0.000000 -22.220860 2.701291 -4.608660 -49.894794 25.527117 -18.487816 -47.930233 -52.347614 27.202053 0.000000 0.000000 0.000000 26.921085 -6.431853 -3.094360 42.895361 -7.149300 -9.764452 64.573953 35.682775 26.838719 0.000000 0.000000 0.000000 
